<?xml version="1.0" encoding="utf-8"?>
<!-- Generator: Adobe Illustrator 24.3.0, SVG Export Plug-In . SVG Version: 6.00 Build 0)  -->
<svg version="1.1" id="Layer_1" xmlns="http://www.w3.org/2000/svg" xmlns:xlink="http://www.w3.org/1999/xlink" x="0px" y="0px"
	 viewBox="0 0 75 50" style="enable-background:new 0 0 75 50;" xml:space="preserve">
<style type="text/css">
	.st0{fill:#B22234;}
	.st1{stroke:#FFFFFF;stroke-width:3;stroke-miterlimit:10;}
	.st2{fill:#3C3B6E;}
	.st3{fill:#FFFFFF;}
</style>
<rect x="0" y="0" class="st0" width="94" height="50"/>
<path class="st1" d="M0,5.8h94 M94,13.5H0 M0,21.2h94 M94,28.8H0 M0,36.5h94 M94,44.2H0"/>
<rect x="0" y="0" class="st2" width="37" height="27"/>
<g>
	<g id="s18">
		<g id="s9">
			<g id="s5">
				<g id="s4">
					<path id="s" class="st3" d="M3.1,1.2L4,3.9L1.7,2.2h2.9L2.2,3.9L3.1,1.2z"/>
					<g>
						<path id="s_1_" class="st3" d="M3.1,6.5L4,9.3L1.7,7.6h2.9L2.2,9.3L3.1,6.5z"/>
					</g>
					<g>
						<path id="s_2_" class="st3" d="M3.1,11.9L4,14.7L1.7,13h2.9l-2.3,1.7L3.1,11.9z"/>
					</g>
					<g>
						<path id="s_3_" class="st3" d="M3.1,17.3L4,20.1l-2.3-1.7h2.9l-2.3,1.7L3.1,17.3z"/>
					</g>
				</g>
				<g>
					<path id="s_4_" class="st3" d="M3.1,22.7L4,25.5l-2.3-1.7h2.9l-2.3,1.7L3.1,22.7z"/>
				</g>
			</g>
			<g>
				<g id="s4_1_">
					<path id="s_5_" class="st3" d="M6.3,3.8l0.9,2.8L4.8,4.9h2.9L5.4,6.6L6.3,3.8z"/>
					<g>
						<path id="s_6_" class="st3" d="M6.3,9.2L7.2,12l-2.3-1.7h2.9L5.4,12L6.3,9.2z"/>
					</g>
					<g>
						<path id="s_7_" class="st3" d="M6.3,14.6l0.9,2.8l-2.3-1.7h2.9l-2.3,1.7L6.3,14.6z"/>
					</g>
					<g>
						<path id="s_8_" class="st3" d="M6.3,20l0.9,2.8l-2.3-1.7h2.9l-2.3,1.7L6.3,20z"/>
					</g>
				</g>
			</g>
		</g>
		<g>
			<g id="s9_1_">
				<g id="s5_1_">
					<g id="s4_2_">
						<path id="s_9_" class="st3" d="M9.4,1.2l0.9,2.8L8,2.2h2.9L8.5,3.9L9.4,1.2z"/>
						<g>
							<path id="s_10_" class="st3" d="M9.4,6.5l0.9,2.8L8,7.6h2.9L8.5,9.3L9.4,6.5z"/>
						</g>
						<g>
							<path id="s_11_" class="st3" d="M9.4,11.9l0.9,2.8L8,13h2.9l-2.3,1.7L9.4,11.9z"/>
						</g>
						<g>
							<path id="s_12_" class="st3" d="M9.4,17.3l0.9,2.8L8,18.4h2.9l-2.3,1.7L9.4,17.3z"/>
						</g>
					</g>
					<g>
						<path id="s_13_" class="st3" d="M9.4,22.7l0.9,2.8L8,23.8h2.9l-2.3,1.7L9.4,22.7z"/>
					</g>
				</g>
				<g>
					<g id="s4_3_">
						<path id="s_14_" class="st3" d="M12.5,3.8l0.9,2.8l-2.3-1.7H14l-2.3,1.7L12.5,3.8z"/>
						<g>
							<path id="s_15_" class="st3" d="M12.5,9.2l0.9,2.8l-2.3-1.7H14L11.6,12L12.5,9.2z"/>
						</g>
						<g>
							<path id="s_16_" class="st3" d="M12.5,14.6l0.9,2.8l-2.3-1.7H14l-2.3,1.7L12.5,14.6z"/>
						</g>
						<g>
							<path id="s_17_" class="st3" d="M12.5,20l0.9,2.8l-2.3-1.7H14l-2.3,1.7L12.5,20z"/>
						</g>
					</g>
				</g>
			</g>
		</g>
	</g>
	<g>
		<g id="s18_1_">
			<g id="s9_2_">
				<g id="s5_2_">
					<g id="s4_4_">
						<path id="s_18_" class="st3" d="M15.7,1.2l0.9,2.8l-2.3-1.7h2.9l-2.3,1.7L15.7,1.2z"/>
						<g>
							<path id="s_19_" class="st3" d="M15.7,6.5l0.9,2.8l-2.3-1.7h2.9l-2.3,1.7L15.7,6.5z"/>
						</g>
						<g>
							<path id="s_20_" class="st3" d="M15.7,11.9l0.9,2.8L14.2,13h2.9l-2.3,1.7L15.7,11.9z"/>
						</g>
						<g>
							<path id="s_21_" class="st3" d="M15.7,17.3l0.9,2.8l-2.3-1.7h2.9l-2.3,1.7L15.7,17.3z"/>
						</g>
					</g>
					<g>
						<path id="s_22_" class="st3" d="M15.7,22.7l0.9,2.8l-2.3-1.7h2.9l-2.3,1.7L15.7,22.7z"/>
					</g>
				</g>
				<g>
					<g id="s4_5_">
						<path id="s_23_" class="st3" d="M18.8,3.8l0.9,2.8l-2.3-1.7h2.9l-2.3,1.7L18.8,3.8z"/>
						<g>
							<path id="s_24_" class="st3" d="M18.8,9.2l0.9,2.8l-2.3-1.7h2.9L17.9,12L18.8,9.2z"/>
						</g>
						<g>
							<path id="s_25_" class="st3" d="M18.8,14.6l0.9,2.8l-2.3-1.7h2.9l-2.3,1.7L18.8,14.6z"/>
						</g>
						<g>
							<path id="s_26_" class="st3" d="M18.8,20l0.9,2.8l-2.3-1.7h2.9l-2.3,1.7L18.8,20z"/>
						</g>
					</g>
				</g>
			</g>
			<g>
				<g id="s9_3_">
					<g id="s5_3_">
						<g id="s4_6_">
							<path id="s_27_" class="st3" d="M21.9,1.2l0.9,2.8l-2.3-1.7h2.9L21,3.9L21.9,1.2z"/>
							<g>
								<path id="s_28_" class="st3" d="M21.9,6.5l0.9,2.8l-2.3-1.7h2.9L21,9.3L21.9,6.5z"/>
							</g>
							<g>
								<path id="s_29_" class="st3" d="M21.9,11.9l0.9,2.8L20.5,13h2.9L21,14.7L21.9,11.9z"/>
							</g>
							<g>
								<path id="s_30_" class="st3" d="M21.9,17.3l0.9,2.8l-2.3-1.7h2.9L21,20.1L21.9,17.3z"/>
							</g>
						</g>
						<g>
							<path id="s_31_" class="st3" d="M21.9,22.7l0.9,2.8l-2.3-1.7h2.9L21,25.5L21.9,22.7z"/>
						</g>
					</g>
					<g>
						<g id="s4_7_">
							<path id="s_32_" class="st3" d="M25.1,3.8L26,6.6l-2.3-1.7h2.9l-2.3,1.7L25.1,3.8z"/>
							<g>
								<path id="s_33_" class="st3" d="M25.1,9.2L26,12l-2.3-1.7h2.9L24.2,12L25.1,9.2z"/>
							</g>
							<g>
								<path id="s_34_" class="st3" d="M25.1,14.6l0.9,2.8l-2.3-1.7h2.9l-2.3,1.7L25.1,14.6z"/>
							</g>
							<g>
								<path id="s_35_" class="st3" d="M25.1,20l0.9,2.8l-2.3-1.7h2.9l-2.3,1.7L25.1,20z"/>
							</g>
						</g>
					</g>
				</g>
			</g>
		</g>
	</g>
	<g>
		<g id="s9_4_">
			<g id="s5_4_">
				<g id="s4_8_">
					<path id="s_36_" class="st3" d="M28.2,1.2l0.9,2.8l-2.3-1.7h2.9l-2.3,1.7L28.2,1.2z"/>
					<g>
						<path id="s_37_" class="st3" d="M28.2,6.5l0.9,2.8l-2.3-1.7h2.9l-2.3,1.7L28.2,6.5z"/>
					</g>
					<g>
						<path id="s_38_" class="st3" d="M28.2,11.9l0.9,2.8L26.8,13h2.9l-2.3,1.7L28.2,11.9z"/>
					</g>
					<g>
						<path id="s_39_" class="st3" d="M28.2,17.3l0.9,2.8l-2.3-1.7h2.9l-2.3,1.7L28.2,17.3z"/>
					</g>
				</g>
				<g>
					<path id="s_40_" class="st3" d="M28.2,22.7l0.9,2.8l-2.3-1.7h2.9l-2.3,1.7L28.2,22.7z"/>
				</g>
			</g>
			<g>
				<g id="s4_9_">
					<path id="s_41_" class="st3" d="M31.3,3.8l0.9,2.8l-2.3-1.7h2.9l-2.3,1.7L31.3,3.8z"/>
					<g>
						<path id="s_42_" class="st3" d="M31.3,9.2l0.9,2.8l-2.3-1.7h2.9L30.4,12L31.3,9.2z"/>
					</g>
					<g>
						<path id="s_43_" class="st3" d="M31.3,14.6l0.9,2.8l-2.3-1.7h2.9l-2.3,1.7L31.3,14.6z"/>
					</g>
					<g>
						<path id="s_44_" class="st3" d="M31.3,20l0.9,2.8l-2.3-1.7h2.9l-2.3,1.7L31.3,20z"/>
					</g>
				</g>
			</g>
		</g>
	</g>
	<g>
		<g id="s5_5_">
			<g id="s4_10_">
				<path id="s_45_" class="st3" d="M34.5,1.2l0.9,2.8L33,2.2h2.9l-2.3,1.7L34.5,1.2z"/>
				<g>
					<path id="s_46_" class="st3" d="M34.5,6.5l0.9,2.8L33,7.6h2.9l-2.3,1.7L34.5,6.5z"/>
				</g>
				<g>
					<path id="s_47_" class="st3" d="M34.5,11.9l0.9,2.8L33,13h2.9l-2.3,1.7L34.5,11.9z"/>
				</g>
				<g>
					<path id="s_48_" class="st3" d="M34.5,17.3l0.9,2.8L33,18.4h2.9l-2.3,1.7L34.5,17.3z"/>
				</g>
			</g>
			<g>
				<path id="s_49_" class="st3" d="M34.5,22.7l0.9,2.8L33,23.8h2.9l-2.3,1.7L34.5,22.7z"/>
			</g>
		</g>
	</g>
</g>
</svg>
